<?xml version="1.0"?>
<svg xmlns="http://www.w3.org/2000/svg" id="Solid" viewBox="0 0 512 512" width="512px" height="512px" class=""><g><path d="M306.461,242.726A96,96,0,1,0,336,312,95.54,95.54,0,0,0,306.461,242.726ZM296,320H248v48a8,8,0,0,1-16,0V320H184a8,8,0,0,1,0-16h48V256a8,8,0,0,1,16,0v48h48a8,8,0,0,1,0,16Z" data-original="#000000" class="active-path" data-old_color="#000000" fill="#FFFFFF"/><path d="M448,168H32V456H448ZM240,424A112,112,0,1,1,352,312,112.127,112.127,0,0,1,240,424Z" data-original="#000000" class="active-path" data-old_color="#000000" fill="#FFFFFF"/><path d="M464,464a8,8,0,0,1-8,8H48v16H480V88H464Z" data-original="#000000" class="active-path" data-old_color="#000000" fill="#FFFFFF"/><path d="M368,72V48a8,8,0,0,1,16,0v8h16V48a24,24,0,0,0-48,0V72H304V48a8,8,0,0,1,16,0v8h16V48a24,24,0,0,0-48,0V72H160V48a8,8,0,0,1,16,0v8h16V48a24,24,0,0,0-48,0V72H96V48a8,8,0,0,1,16,0v8h16V48a24,24,0,0,0-48,0V72H32v80H448V72Z" data-original="#000000" class="active-path" data-old_color="#000000" fill="#FFFFFF"/></g> </svg>
