<?xml version="1.0"?>
<svg xmlns="http://www.w3.org/2000/svg" xmlns:xlink="http://www.w3.org/1999/xlink" version="1.1" id="Capa_1" x="0px" y="0px" viewBox="0 0 512 512" style="enable-background:new 0 0 512 512;" xml:space="preserve" width="512px" height="512px" class=""><g><g>
	<g>
		<g>
			<path d="M163.875,43.198c4.167-4.167,4.167-10.917,0-15.083C145.75,9.979,121.646,0,96,0C43.063,0,0,43.063,0,96     c0,25.656,9.979,49.76,28.125,67.885c2.083,2.083,4.813,3.125,7.542,3.125c2.729,0,5.458-1.042,7.542-3.125L163.875,43.198z" data-original="#000000" class="active-path" data-old_color="#000000" fill="#FFFFFF"/>
			<path d="M426.125,163.885c2.083,2.083,4.813,3.125,7.542,3.125s5.458-1.042,7.542-3.125     c18.146-18.125,28.125-42.229,28.125-67.885c0-52.938-43.063-96-96-96c-25.646,0-49.75,9.979-67.875,28.115     c-4.167,4.167-4.167,10.917,0,15.083L426.125,163.885z" data-original="#000000" class="active-path" data-old_color="#000000" fill="#FFFFFF"/>
			<path d="M394.667,277.333c-64.688,0-117.333,52.635-117.333,117.333S329.979,512,394.667,512S512,459.365,512,394.667     S459.354,277.333,394.667,277.333z M437.333,405.333h-32v32c0,5.896-4.771,10.667-10.667,10.667S384,443.229,384,437.333v-32h-32     c-5.896,0-10.667-4.771-10.667-10.667S346.104,384,352,384h32v-32c0-5.896,4.771-10.667,10.667-10.667     s10.667,4.771,10.667,10.667v32h32c5.896,0,10.667,4.771,10.667,10.667S443.229,405.333,437.333,405.333z" data-original="#000000" class="active-path" data-old_color="#000000" fill="#FFFFFF"/>
			<path d="M239.867,276.281c-1.707,0.441-3.357,1.052-5.201,1.052c-11.771,0-21.333-9.573-21.333-21.333     c0-7.794,4.408-14.332,10.667-18.056v-99.277c0-5.896,4.771-10.667,10.667-10.667c5.896,0,10.667,4.771,10.667,10.667v99.277     C251.592,241.668,256,248.206,256,256c0,1.841-0.609,3.49-1.051,5.195l31.217,31.211c4.063,4.073,10.583,4.188,14.771,0.302     c25.708-23.667,59-36.708,93.729-36.708c5.833,0,12,0.479,19.396,1.521c3.083,0.458,6.313-0.552,8.667-2.688     c2.354-2.146,3.625-5.229,3.458-8.406C421.125,144.135,337,64,234.667,64c-105.875,0-192,86.135-192,192     c0,47.586,17.501,91.094,46.276,124.676l-24.422,74.678c-1.521,4.688,0.354,9.823,4.563,12.406     c1.729,1.052,3.667,1.573,5.583,1.573c2.75,0,5.479-1.063,7.542-3.125l48.827-48.827C160.965,436.669,196.487,448,234.667,448     c5.979,0,11.875-0.344,17.708-0.896c3.167-0.292,6.042-1.99,7.833-4.625c1.771-2.635,2.292-5.927,1.417-8.979     c-3.729-12.771-5.625-25.833-5.625-38.833c0-24.927,6.833-49.5,19.771-71.063c2.521-4.198,1.854-9.573-1.604-13.031     L239.867,276.281z" data-original="#000000" class="active-path" data-old_color="#000000" fill="#FFFFFF"/>
		</g>
	</g>
</g></g> </svg>
